<svg xmlns="http://www.w3.org/2000/svg" width="24" height="24" viewBox="0 0 24 24" fill="none">
  <path fill="#FFF" d="M22.225 0H1.771C.792 0 0 .792 0 1.771v20.457C0 23.207.792 24 1.771 24h20.457A1.771 1.771 0 0024 22.229V1.771C24 .792 23.208 0 22.225 0zM7.065 20.453H3.588V9.167h3.477v11.286zM5.326 7.525a2.014 2.014 0 110-4.027 2.014 2.014 0 010 4.027zm14.917 12.928h-3.479v-5.607c0-1.335-.026-3.058-1.86-3.058-1.86 0-2.145 1.453-2.145 2.957v5.708h-3.477V9.167h3.34v1.535h.049c.466-.88 1.605-1.808 3.3-1.808 3.532 0 4.182 2.323 4.182 5.344v6.215h-.001z"/>
</svg>
