<svg xmlns="http://www.w3.org/2000/svg" width="24" height="24" viewBox="0 0 24 24" fill="none">
  <path fill="#FFF" d="M12 0C5.373 0 0 5.373 0 12c0 5.302 3.438 9.8 8.207 11.387.6.111.82-.261.82-.578 0-.285-.01-1.04-.015-2.04-3.338.725-4.042-1.61-4.042-1.61-.546-1.385-1.334-1.754-1.334-1.754-1.09-.745.083-.73.083-.73 1.205.084 1.84 1.238 1.84 1.238 1.07 1.834 2.808 1.304 3.493.997.108-.775.418-1.305.76-1.605-2.665-.305-5.467-1.335-5.467-5.931 0-1.31.47-2.381 1.236-3.22-.124-.303-.536-1.523.117-3.176 0 0 1.008-.322 3.3 1.23a11.486 11.486 0 013.006-.404c1.02.004 2.045.138 3.005.404 2.29-1.552 3.298-1.23 3.298-1.23.655 1.653.243 2.873.12 3.176.77.839 1.235 1.91 1.235 3.22 0 4.609-2.807 5.624-5.479 5.922.43.372.814 1.104.814 2.226 0 1.607-.015 2.905-.015 3.299 0 .32.217.694.825.577C20.565 21.796 24 17.298 24 12c0-6.627-5.373-12-12-12z"/>
</svg>
